<svg xmlns="http://www.w3.org/2000/svg" viewBox="0 0 68.87 54.8"><defs><style>.cls-1{fill:#fff;stroke:#000;stroke-miterlimit:10;stroke-width:0.5px;}</style></defs><g id="Layer_2" data-name="Layer 2"><g id="Layer_1-2" data-name="Layer 1"><polygon class="cls-1" points="45.98 0.25 42.4 6.45 41.74 7.59 38.93 12.46 25.05 12.46 21.47 18.65 18 24.67 17.32 25.84 14.42 30.86 17.32 35.88 17.32 36.88 3.84 36.88 0.29 30.73 3.78 24.67 5.11 22.37 5.11 22.36 7.31 18.55 10.83 12.46 14.36 6.34 17.32 1.22 17.88 0.25 45.98 0.25"/><polygon class="cls-1" points="68.62 24.11 68.62 24.12 65.09 30.23 64.04 32.04 64.04 32.05 61.52 36.41 61.52 36.42 58.16 42.24 58.15 42.24 54.58 48.43 54.58 48.44 51.73 53.37 51.73 53.38 51.05 54.55 22.86 54.55 26.39 48.44 27.51 46.49 29.97 42.24 44.06 42.24 47.53 36.23 47.53 36.22 50.99 30.23 51.73 28.96 54.47 24.21 51.73 19.46 51.73 18.02 65.11 18.02 68.62 24.11"/><rect class="cls-1" x="26.53" y="13.46" width="12.21" height="12.21"/><polygon class="cls-1" points="38.72 29.23 38.72 41.24 28.97 41.24 26.51 45.49 26.51 29.23 38.72 29.23"/></g></g></svg>